Coordinates
version=1
nRows=5
nColumns=40
inDegrees=yes

Units are S.I. units (second, meters, Newtons, ...)
Angles are in degrees.

endheader
time	pelvis_tilt	pelvis_list	pelvis_rotation	pelvis_tx	pelvis_ty	pelvis_tz	hip_flexion_r	hip_adduction_r	hip_rotation_r	knee_angle_r	knee_angle_r_beta	ankle_angle_r	subtalar_angle_r	mtp_angle_r	hip_flexion_l	hip_adduction_l	hip_rotation_l	knee_angle_l	knee_angle_l_beta	ankle_angle_l	subtalar_angle_l	mtp_angle_l	lumbar_extension	lumbar_bending	lumbar_rotation	arm_flex_r	arm_add_r	arm_rot_r	elbow_flex_r	pro_sup_r	wrist_flex_r	wrist_dev_r	arm_flex_l	arm_add_l	arm_rot_l	elbow_flex_l	pro_sup_l	wrist_flex_l	wrist_dev_l
     22.50500000	     -3.95383691	     -4.60810733	     -1.68605437	      1.10731074	      0.92841813	      0.44688675	     19.36938871	      0.25875800	     -9.65153494	     17.79395245	     17.79395245	      5.16532436	      2.02342146	     -0.16224125	      2.30020981	     -9.89506011	    -12.36256018	     26.00139066	     26.00139066	     18.03734487	     -4.47335069	     -4.87902673	    -10.40110801	      3.12038770	     -0.93480374	     -3.68099680	    -20.02647197	     -4.00443223	     63.82097653	     43.55226963	      0.00000000	      0.00000000	     10.01952200	    -13.30782462	     -4.36438806	     36.97951277	     46.00405371	      0.00000000	      0.00000000
     22.51914286	     -3.84983216	     -4.75353539	     -1.54911690	      1.10841959	      0.92893984	      0.45071394	     18.77671824	      0.62964575	     -9.87229910	     17.83887798	     17.83887798	      5.63312393	      2.08318948	     -0.31278463	      3.04768826	    -10.61849074	    -11.79568217	     28.32168049	     28.32168049	     17.23177868	     -5.47088392	     -5.54537057	    -10.42894021	      3.21041769	     -0.92488971	     -2.53296278	    -20.20336572	     -4.26004851	     64.79412886	     43.55105872	      0.00000000	      0.00000000	      8.99610367	    -13.38350831	     -4.50981012	     36.23181645	     46.00963825	      0.00000000	      0.00000000
     22.53328571	     -3.82784676	     -4.75806264	     -1.37699483	      1.10935344	      0.92925372	      0.45424659	     18.28258005	      0.81650406	    -10.10200112	     17.88620700	     17.88620700	      6.10562231	      2.23433759	     -0.55595549	      4.01037133	    -11.05850132	    -10.78423873	     30.56883864	     30.56883864	     14.44251429	     -8.06482991	     -9.92336441	    -10.38209604	      3.22923448	     -0.98701654	     -2.06769139	    -20.89084715	     -3.60482396	     68.06697701	     43.54820819	      0.00000000	      0.00000000	      8.15235339	    -13.19731117	     -5.74179826	     34.86255380	     46.17733739	      0.00000000	      0.00000000
     22.54742857	     -3.74488253	     -4.89940658	     -1.14292844	      1.11008899	      0.92961525	      0.45780211	     17.66016839	      1.15996565	    -10.37923318	     17.80618226	     17.80618226	      6.53545856	      2.34418553	     -0.71796714	      5.43555361	    -11.83887580	     -9.91627100	     33.88110808	     33.88110808	     13.10970551	     -9.32585781	    -10.63664052	    -10.41219158	      3.34005861	     -0.91736340	     -0.83748375	    -21.09163177	     -3.92356014	     68.99285491	     43.55044315	      0.00000000	      0.00000000	      7.24330448	    -13.21934753	     -5.82087291	     34.21403816	     46.17557840	      0.00000000	      0.00000000
     22.56157143	     -3.74755459	     -4.99015935	     -0.83932093	      1.11052755	      0.92977901	      0.46107851	     17.16279144	      1.41586687	    -10.70878826	     17.74373076	     17.74373076	      6.94164880	      2.45873350	     -0.91546535	      7.26264091	    -12.48943922	     -8.73393779	     37.53296566	     37.53296566	     11.28992294	    -11.02489654	    -11.44500105	    -10.36010479	      3.44370626	     -0.98109861	      0.37617776	    -21.32336708	     -4.11244024	     70.38917819	     43.53271078	      0.00000000	      0.00000000	      6.31625636	    -13.25224283	     -5.91544701	     33.48503632	     46.17610744	      0.00000000	      0.00000000
